<svg width="1280" height="400" xmlns="http://www.w3.org/2000/svg"><g fill="none" fill-rule="evenodd"><path d="M1073.114583 299.239583L1206.375 133.2083333C1201.21875 129.3125 1149.942708 87.375 1073 87.375c-76.9427083 0-128.21875 41.9375-133.375 45.8333333l133.260417 166.0312497.114583.114584.114583-.114584z" fill="#FFF" fill-rule="nonzero"/><path d="M935.5 53h275v275h-275z"/><path d="M1072.942708 299.296875l.057292.057292.057292-.057292 61.015625-76.026042c-3.036459-2.348958-26.354167-21.3125-61.072917-21.3125s-58.0364583 18.963542-61.0729167 21.3125l61.0156247 76.026042z" fill="#01E676" fill-rule="nonzero"/><g fill-rule="nonzero"><path d="M586.5334 81.88072h-17.88072V71.36296c0-1.88364.7194-3.76728 2.1582-5.20476C572.24836 64.7194 574.132 64 576.01564 64h3.15744c1.881 0 3.76728.72072 5.20212 2.1582 1.44012 1.43748 2.15688 3.32244 2.15688 5.20476v10.51776h.00132zm31.20348-10.51776c0-1.88364-.7194-3.76728-2.15424-5.20476C614.14516 64.7194 612.25756 64 610.37392 64h-3.1548c-1.88364 0-3.76992.72072-5.2074 2.1582-1.43484 1.43748-2.15556 3.32244-2.15556 5.20476v10.51776h17.88072V71.36296zm31.20084 0c0-1.88364-.71808-3.76728-2.15292-5.20476C645.34468 64.7194 643.46236 64 641.5774 64h-3.1548c-1.88628 0-3.76992.72072-5.2074 2.1582-1.43748 1.43748-2.15556 3.32244-2.15556 5.20476v10.51776h17.87676V71.36296h.00132zm31.20744 0c0-1.88364-.72204-3.76728-2.15688-5.20476C676.54816 64.7194 674.66056 64 672.77956 64h-3.15744c-1.88232 0-3.76728.72072-5.20212 2.1582-1.44144 1.43748-2.1582 3.32244-2.1582 5.20476v10.51776h17.88336V71.36296zm31.1982 0c0-1.88364-.71676-3.76728-2.15688-5.20476C707.75032 64.7194 705.86404 64 703.98436 64h-3.15876c-1.881 0-3.76728.72072-5.20212 2.1582-1.44012 1.43748-2.1582 3.32244-2.1582 5.20476v10.51776h17.87808V71.36296zm-195.9804 178.10232c-1.88364 0-3.76728.71808-5.20476 2.1582-1.44144 1.43484-2.1582 3.32112-2.1582 5.2074v3.15348c0 1.88628.71808 3.76728 2.1582 5.2074 1.43748 1.43484 3.32244 2.1582 5.20476 2.1582h10.51776v-17.88468h-10.51776zm0-31.20348c-1.88364 0-3.76728.71676-5.20476 2.1582-1.44144 1.43484-2.1582 3.32112-2.1582 5.2074v3.15216c0 1.8876.71808 3.76728 2.1582 5.20872 1.43748 1.43484 3.32244 2.1516 5.20476 2.1516h10.51776V218.2618h-10.51776zm0-31.20216c-1.88364 0-3.76728.71676-5.20476 2.1582-1.44144 1.43484-2.1582 3.31848-2.1582 5.20476v3.1548c0 1.88496.71808 3.76728 2.1582 5.20608 1.43748 1.43484 3.32244 2.1582 5.20476 2.1582h10.51776v-17.88204h-10.51776zm0-31.20348c-1.88364 0-3.76728.72072-5.20476 2.1582-1.44144 1.43748-2.1582 3.32112-2.1582 5.20212v3.15744c0 1.88364.71808 3.76992 2.1582 5.20872 1.43748 1.43484 3.32244 2.15424 5.20476 2.15424h10.51776v-17.88072h-10.51776zm0-31.20084c-1.88364 0-3.76728.71676-5.20476 2.15556-1.44144 1.43748-2.1582 3.32112-2.1582 5.20476v3.1548c0 1.8876.71808 3.77388 2.1582 5.20608 1.43748 1.44012 3.32244 2.15688 5.20476 2.15688h10.51776v-17.87808h-10.51776zm238.75896 124.80996v17.88468h10.51776c1.881 0 3.76728-.72336 5.2074-2.1582 1.43484-1.44144 2.15292-3.32244 2.15292-5.2074v-3.15348c0-1.88628-.71808-3.77256-2.15292-5.2074-1.44012-1.44012-3.32772-2.1582-5.2074-2.1582h-10.51776zm0-31.20348v17.87808h10.51776c1.881 0 3.76728-.71676 5.2074-2.1516 1.43484-1.44144 2.15292-3.32244 2.15292-5.20872v-3.15216c0-1.8876-.71808-3.77256-2.15292-5.2074-1.44012-1.44144-3.32772-2.1582-5.2074-2.1582h-10.51776zm0-31.20216v17.88204h10.51776c1.881 0 3.76728-.72336 5.2074-2.1582C771.28192 201.34336 772 199.46104 772 197.5774v-3.1548c0-1.88628-.71808-3.76992-2.15292-5.20476-1.44012-1.44012-3.32772-2.1582-5.2074-2.1582h-10.51776zm0-31.20348v17.88072h10.51776c1.881 0 3.76728-.7194 5.2074-2.15424 1.43484-1.43748 2.15292-3.32508 2.15292-5.20872v-3.15744c0-1.881-.71808-3.76464-2.15292-5.20212-1.44012-1.43748-3.32772-2.1582-5.2074-2.1582h-10.51776zm0-31.20084v17.87808h10.51776c1.881 0 3.76728-.71676 5.2074-2.15688 1.43484-1.4322 2.15292-3.31848 2.15292-5.20608v-3.1548c0-1.88364-.71808-3.76728-2.15292-5.20476-1.44012-1.43748-3.32772-2.15556-5.2074-2.15556h-10.51776zM586.5334 310.12192h-17.88072v10.51776c0 1.881.7194 3.76728 2.1582 5.20212 1.43748 1.44012 3.32112 2.1582 5.20476 2.1582h3.15744c1.881 0 3.76728-.71808 5.20212-2.1582 1.44012-1.43484 2.15688-3.32244 2.15688-5.20212v-10.51776h.00132zm31.20348 0h-17.88072v10.51776c0 1.881.72072 3.76728 2.15556 5.20212 1.43748 1.44012 3.32508 2.1582 5.2074 2.1582h3.1548c1.88364 0 3.76728-.71808 5.20872-2.1582 1.43484-1.43484 2.15424-3.32244 2.15424-5.20212v-10.51776zm31.20084 0h-17.87808v10.51776c0 1.881.71676 3.76728 2.15556 5.20212 1.43748 1.44012 3.32376 2.1582 5.2074 2.1582h3.1548c1.88496 0 3.76728-.71808 5.20608-2.1582 1.43484-1.43484 2.15292-3.32244 2.15292-5.20212v-10.51776h.00132zm31.20744 0H662.2618v10.51776c0 1.881.71676 3.76728 2.1582 5.20212 1.43484 1.44012 3.32112 2.1582 5.20212 2.1582h3.15744c1.881 0 3.76728-.71808 5.20872-2.1582 1.43484-1.43484 2.15688-3.32244 2.15688-5.20212v-10.51776zm31.1982 0h-17.87808v10.51776c0 1.881.71808 3.76728 2.1582 5.20212 1.43484 1.44012 3.32244 2.1582 5.20212 2.1582h3.15876c1.881 0 3.76728-.71808 5.20212-2.1582 1.44012-1.43484 2.15688-3.32244 2.15688-5.20212v-10.51776z" fill="#B64FC8"/><path d="M571.97644 108.70312l-19.27596 19.27332v136.0458l19.27596 19.27332h136.0458l19.27332-19.27332v-136.0458l-19.27332-19.27332h-136.0458zm36.37524 81.72912l-7.67184 1.21704v-6.23568h-20.67648v20.86128h20.6778v-7.07652l7.67184 1.58664v3.89664c0 3.01752-.57156 5.06748-1.70016 6.1578-1.13256 1.0956-3.29076 1.63812-6.47064 1.63812h-19.67856c-3.19968 0-5.36052-.54252-6.48516-1.63812-1.122-1.09032-1.683-3.14028-1.683-6.1578v-17.3646c0-2.99376.56232-5.04372 1.683-6.14328 1.12464-1.10088 3.28416-1.65132 6.48516-1.65132h19.67724c3.1812 0 5.33808.55044 6.47064 1.65132 1.1286 1.09956 1.70016 3.14952 1.70016 6.14328v3.1152zm51.447 2.838c0 2.22288-.58608 3.8412-1.7622 4.84968-1.1748 1.0098-3.06636 1.51272-5.6892 1.51272h-20.64084v12.84492H624.16v-32.95512h28.18728c2.62152 0 4.5144.50292 5.6892 1.5114 1.17612 1.00848 1.7622 2.63472 1.7622 4.88004v7.35636zm47.86188 11.4114c0 3.01752-.55836 5.06748-1.67772 6.1578-1.12464 1.0956-3.2868 1.63812-6.49044 1.63812h-20.82696c-3.17988 0-5.33808-.54252-6.47196-1.63812-1.12992-1.09032-1.69488-3.14028-1.69488-6.1578v-25.1592h7.66524v26.75376h21.86184v-26.75376h7.6362v25.1592h-.00132zm-55.98384-18.876c.49104.38412.73524 1.05336.73524 2.01036v3.52176c0 .97416-.2442 1.65792-.73524 2.04204-.49104.38412-1.39524.57684-2.72844.57684h-17.24184v-8.72652h17.24052c1.33452 0 2.23872.18876 2.72976.57552zm92.01192-66.72336L716.91376 92.3074c-.81312-.81972-2.4288-1.485-3.58644-1.485H566.67268c-1.15764 0-2.77332.6666-3.59304 1.485l-26.77092 26.77488c-.81972.81708-1.48896 2.43144-1.48896 3.5904v146.65464c0 1.15764.66924 2.77332 1.48896 3.58644l26.77224 26.78016c.81972.81972 2.43408 1.48632 3.59304 1.48632h146.65464c1.15764 0 2.77332-.6666 3.58644-1.48632l26.77488-26.78016c.8184-.81312 1.4916-2.4288 1.4916-3.58644V122.67268c0-1.15764-.67452-2.77332-1.49292-3.5904zm-32.61588 171.57888H568.92328l-23.58576-23.5884V124.92724l23.58576-23.58972h142.14816l23.58972 23.58972v142.14552l-23.5884 23.5884z" fill="#FFB2FF"/></g><g fill-rule="nonzero"><g fill="#FFC101"><path d="M192.5 110.10575c-5.2459 0-9.5-4.2541-9.5-9.5v-37.2115c0-5.2459 4.2541-9.5 9.5-9.5s9.5 4.2541 9.5 9.5v37.2115c0 5.2459-4.2541 9.5-9.5 9.5zM145 110.5c-5.2459 0-9.5-4.2541-9.5-9.5V63c0-5.2459 4.2541-9.5 9.5-9.5s9.5 4.2541 9.5 9.5v38c0 5.2459-4.2541 9.5-9.5 9.5zM240 110.5c-5.25065 0-9.5-4.2541-9.5-9.5V63c0-5.2459 4.24935-9.5 9.5-9.5s9.5 4.2541 9.5 9.5v38c0 5.2459-4.24935 9.5-9.5 9.5zM192.5 338.10575c-5.2459 0-9.5-4.2541-9.5-9.5v-37.2115c0-5.2459 4.2541-9.5 9.5-9.5s9.5 4.2541 9.5 9.5v37.2115c0 5.2459-4.2541 9.5-9.5 9.5zM145 338.5c-5.2459 0-9.5-4.2541-9.5-9.5v-38c0-5.2459 4.2541-9.5 9.5-9.5s9.5 4.2541 9.5 9.5v38c0 5.2459-4.2541 9.5-9.5 9.5zM240 338.5c-5.25065 0-9.5-4.2541-9.5-9.5v-38c0-5.2459 4.24935-9.5 9.5-9.5s9.5 4.2541 9.5 9.5v38c0 5.2459-4.24935 9.5-9.5 9.5z"/></g><g fill="#F8C104"><path d="M97.10575 205.5h-37.2115c-5.2459 0-9.5-4.2541-9.5-9.5s4.2541-9.5 9.5-9.5h37.2115c5.2459 0 9.5 4.2541 9.5 9.5s-4.2541 9.5-9.5 9.5zM97.5 253h-38c-5.2459 0-9.5-4.2541-9.5-9.5s4.2541-9.5 9.5-9.5h38c5.2459 0 9.5 4.2541 9.5 9.5s-4.2541 9.5-9.5 9.5zM97.5 158h-38c-5.2459 0-9.5-4.2541-9.5-9.5s4.2541-9.5 9.5-9.5h38c5.2459 0 9.5 4.2541 9.5 9.5s-4.2541 9.5-9.5 9.5zM325.101 205.5h-37.202c-5.25065 0-9.5-4.2541-9.5-9.5s4.24935-9.5 9.5-9.5h37.202c5.25065 0 9.5 4.2541 9.5 9.5s-4.24935 9.5-9.5 9.5zM325.5 253h-38c-5.25065 0-9.5-4.2541-9.5-9.5s4.24935-9.5 9.5-9.5h38c5.25065 0 9.5 4.2541 9.5 9.5s-4.24935 9.5-9.5 9.5zM325.5 158h-38c-5.25065 0-9.5-4.2541-9.5-9.5s4.24935-9.5 9.5-9.5h38c5.25065 0 9.5 4.2541 9.5 9.5s-4.24935 9.5-9.5 9.5z"/></g><path d="M297 101v190c0 5.225-4.275 9.5-9.5 9.5h-190c-5.225 0-9.5-4.275-9.5-9.5V101c0-5.225 4.275-9.5 9.5-9.5h190c5.225 0 9.5 4.275 9.5 9.5z" fill="#B3FF5B"/><path d="M259 158v76c0 15.675-12.825 28.5-28.5 28.5h-76c-15.675 0-28.5-12.825-28.5-28.5v-76c0-15.675 12.825-28.5 28.5-28.5h76c15.675 0 28.5 12.825 28.5 28.5z" fill="#202124"/></g></g></svg>